<svg width="960" height="960" viewBox="0 0 960 960" fill="none" xmlns="http://www.w3.org/2000/svg">
<circle cx="480" cy="480" r="480" fill="url(#paint0_radial_83_10)"/>
<circle cx="480" cy="480" r="480" fill="url(#paint1_radial_83_10)"/>
<path d="M79.0342 481.872C99.1901 434.105 93.8108 413.043 166.378 366.276C11.8476 454.167 6.66171 526.511 79.0342 481.872Z" fill="url(#paint2_linear_83_10)"/>
<path d="M763.799 579.749C815.651 597.707 898.194 650.962 481.638 650.962C808.932 662.67 900.114 614.903 763.799 579.749Z" fill="url(#paint3_linear_83_10)"/>
<path d="M518.627 341.977C516.936 340.523 507.403 344.702 506.15 346.754C511.038 349.428 516.2 351.044 518.627 348.664C520.576 346.754 520.851 343.888 518.627 341.977Z" fill="#B22222"/>
<path fill-rule="evenodd" clip-rule="evenodd" d="M479.718 651.206C-136.479 642.608 -6.90485 244.232 596.814 316.837C-34.7392 272.892 -27.0607 634.965 479.718 651.206ZM120.405 416.271C120.237 413.998 124.702 406.608 126.597 407.197C129.088 407.972 130.339 410.563 129.956 412.989C129.48 416.01 125.115 416.653 120.405 416.271ZM110.2 415.895C108.75 415.444 105.334 421.098 105.462 422.837C109.066 423.129 112.406 422.637 112.77 420.326C113.063 418.469 112.106 416.487 110.2 415.895ZM107.493 433.15C107.413 432.059 109.555 428.512 110.465 428.795C111.66 429.167 112.26 430.41 112.077 431.574C111.848 433.024 109.753 433.333 107.493 433.15Z" fill="url(#paint4_linear_83_10)"/>
<path d="M759.21 347.69L804.57 350.643C805.44 349.206 806.487 347.605 807.636 345.928L762.415 341.111C761.375 343.444 760.211 345.86 759.21 347.69Z" fill="url(#paint5_linear_83_10)"/>
<path d="M819.528 351.617L806.693 350.781C807.506 349.321 808.386 347.683 809.216 346.096L819.975 347.242C819.782 348.806 819.629 350.283 819.528 351.617Z" fill="url(#paint6_linear_83_10)"/>
<path d="M821.445 351.742L926.337 358.571L821.584 347.413C821.552 348.923 821.506 350.415 821.445 351.742Z" fill="url(#paint7_linear_83_10)"/>
<path d="M759.359 340.785C757.553 343.238 756.085 345.545 755.26 347.433L720.607 345.176C714.397 344.701 708.749 344.179 703.675 343.63C707.368 340.959 710.625 338.251 712.419 336.011C715.699 336.264 719.181 336.559 722.868 336.898L759.359 340.785Z" fill="url(#paint8_linear_83_10)"/>
<path d="M701.314 343.367C660.481 338.711 659.879 332.353 707.785 335.671C705.672 337.941 703.133 340.982 701.314 343.367Z" fill="url(#paint9_linear_83_10)"/>
<path d="M282.847 491.445H288.12C287.144 501.667 284.442 510.163 280.015 516.934C275.653 523.639 269.826 528.652 262.534 531.973C255.308 535.293 246.942 536.953 237.437 536.953C229.624 536.953 222.56 535.456 216.245 532.461C209.93 529.466 204.494 525.202 199.937 519.668C195.445 514.134 191.994 507.559 189.585 499.941C187.176 492.259 185.972 483.796 185.972 474.551V453.262C185.972 443.952 187.176 435.488 189.585 427.871C191.994 420.254 195.445 413.678 199.937 408.145C204.494 402.611 209.93 398.346 216.245 395.352C222.56 392.357 229.624 390.859 237.437 390.859C246.942 390.859 255.308 392.52 262.534 395.84C269.826 399.16 275.653 404.173 280.015 410.879C284.442 417.585 287.144 426.016 288.12 436.172H282.847C281.87 427.448 279.494 420.124 275.718 414.199C272.007 408.275 266.929 403.783 260.484 400.723C254.103 397.663 246.421 396.133 237.437 396.133C230.536 396.133 224.253 397.5 218.589 400.234C212.925 402.904 208.042 406.745 203.941 411.758C199.904 416.771 196.779 422.76 194.566 429.727C192.352 436.693 191.245 444.473 191.245 453.066V474.551C191.245 483.145 192.352 490.957 194.566 497.988C196.779 505.02 199.904 511.042 203.941 516.055C208.042 521.068 212.925 524.941 218.589 527.676C224.253 530.345 230.536 531.68 237.437 531.68C246.226 531.68 253.843 530.28 260.288 527.48C266.734 524.616 271.844 520.221 275.62 514.297C279.461 508.307 281.87 500.69 282.847 491.445ZM315.667 385V535H310.394V385H315.667ZM314.788 473.086L311.956 467.52C312.607 462.311 314.04 457.331 316.253 452.578C318.467 447.76 321.364 443.464 324.945 439.688C328.525 435.911 332.692 432.917 337.445 430.703C342.197 428.49 347.438 427.383 353.167 427.383C358.506 427.383 363.258 428.132 367.425 429.629C371.592 431.061 375.107 433.372 377.972 436.562C380.836 439.688 383.017 443.724 384.515 448.672C386.012 453.62 386.761 459.609 386.761 466.641V535H381.487V466.641C381.487 457.656 380.251 450.723 377.777 445.84C375.368 440.892 372.015 437.441 367.718 435.488C363.421 433.535 358.473 432.559 352.874 432.559C346.234 432.559 340.537 434.056 335.784 437.051C331.097 439.98 327.223 443.659 324.163 448.086C321.168 452.513 318.89 457.005 317.327 461.562C315.83 466.12 314.984 469.961 314.788 473.086ZM478.273 515.176V460.586C478.273 454.727 477.003 449.714 474.464 445.547C471.99 441.38 468.344 438.19 463.527 435.977C458.774 433.763 452.947 432.656 446.046 432.656C439.666 432.656 433.904 433.796 428.761 436.074C423.683 438.288 419.646 441.348 416.652 445.254C413.722 449.16 412.257 453.555 412.257 458.438L406.984 458.242C406.984 454.141 407.928 450.234 409.816 446.523C411.769 442.812 414.471 439.525 417.921 436.66C421.437 433.796 425.571 431.549 430.323 429.922C435.141 428.229 440.382 427.383 446.046 427.383C453.403 427.383 459.881 428.62 465.48 431.094C471.144 433.568 475.571 437.279 478.761 442.227C481.951 447.174 483.546 453.359 483.546 460.781V513.711C483.546 517.487 483.774 521.296 484.23 525.137C484.751 528.978 485.434 531.973 486.28 534.121V535H480.226C479.575 532.461 479.086 529.401 478.761 525.82C478.435 522.174 478.273 518.626 478.273 515.176ZM480.616 476.016L480.812 481.387H453.273C446.437 481.387 440.317 482.07 434.913 483.438C429.51 484.74 424.92 486.595 421.144 489.004C417.368 491.413 414.471 494.277 412.452 497.598C410.434 500.918 409.425 504.596 409.425 508.633C409.425 512.865 410.564 516.738 412.843 520.254C415.187 523.77 418.409 526.569 422.511 528.652C426.612 530.736 431.333 531.777 436.671 531.777C444.093 531.777 450.668 530.573 456.398 528.164C462.127 525.69 466.977 522.24 470.948 517.812C474.92 513.385 477.947 508.145 480.03 502.09L482.374 506.973C481.137 510.618 479.282 514.232 476.808 517.812C474.399 521.328 471.306 524.551 467.53 527.48C463.754 530.345 459.295 532.656 454.152 534.414C449.073 536.107 443.247 536.953 436.671 536.953C430.096 536.953 424.366 535.749 419.484 533.34C414.601 530.866 410.825 527.48 408.155 523.184C405.486 518.822 404.152 513.841 404.152 508.242C404.152 503.555 405.258 499.258 407.472 495.352C409.685 491.38 412.876 487.962 417.042 485.098C421.274 482.168 426.417 479.922 432.472 478.359C438.527 476.797 445.362 476.016 452.98 476.016H480.616ZM514.902 451.895V535H509.628V429.336H514.902V451.895ZM514.023 473.086L511.191 467.52C511.842 462.311 513.274 457.331 515.487 452.578C517.701 447.76 520.598 443.464 524.179 439.688C527.76 435.911 531.926 432.917 536.679 430.703C541.431 428.49 546.672 427.383 552.402 427.383C557.74 427.383 562.493 428.132 566.659 429.629C570.826 431.061 574.342 433.372 577.206 436.562C580.071 439.688 582.252 443.724 583.749 448.672C585.247 453.62 585.995 459.609 585.995 466.641V535H580.722V466.641C580.722 457.656 579.485 450.723 577.011 445.84C574.602 440.892 571.249 437.441 566.952 435.488C562.655 433.535 557.708 432.559 552.109 432.559C545.468 432.559 539.771 434.056 535.019 437.051C530.331 439.98 526.458 443.659 523.398 448.086C520.403 452.513 518.124 457.005 516.562 461.562C515.064 466.12 514.218 469.961 514.023 473.086ZM647.038 531.68C652.572 531.68 657.813 530.703 662.761 528.75C667.774 526.732 671.941 523.607 675.261 519.375C678.646 515.143 680.534 509.674 680.925 502.969H686.198C685.873 510.13 683.887 516.25 680.241 521.328C676.596 526.406 671.876 530.28 666.081 532.949C660.287 535.618 653.939 536.953 647.038 536.953C640.202 536.953 634.083 535.684 628.679 533.145C623.34 530.54 618.816 526.895 615.105 522.207C611.459 517.52 608.659 511.953 606.706 505.508C604.818 499.062 603.874 491.966 603.874 484.219V480.117C603.874 472.37 604.818 465.273 606.706 458.828C608.659 452.383 611.459 446.816 615.105 442.129C618.816 437.441 623.308 433.828 628.581 431.289C633.92 428.685 640.007 427.383 646.843 427.383C653.679 427.383 659.994 428.783 665.788 431.582C671.648 434.316 676.433 438.418 680.144 443.887C683.855 449.355 685.873 456.126 686.198 464.199H680.925C680.599 457.168 678.809 451.341 675.554 446.719C672.364 442.031 668.23 438.516 663.152 436.172C658.073 433.828 652.637 432.656 646.843 432.656C640.398 432.656 634.799 433.893 630.046 436.367C625.293 438.776 621.355 442.161 618.23 446.523C615.17 450.885 612.891 455.931 611.394 461.66C609.896 467.389 609.148 473.542 609.148 480.117V484.219C609.148 490.859 609.896 497.044 611.394 502.773C612.891 508.503 615.17 513.548 618.23 517.91C621.355 522.207 625.293 525.592 630.046 528.066C634.864 530.475 640.528 531.68 647.038 531.68ZM742.749 536.953C736.304 536.953 730.282 535.684 724.683 533.145C719.084 530.54 714.168 526.895 709.937 522.207C705.705 517.52 702.385 511.986 699.976 505.605C697.632 499.16 696.46 492.096 696.46 484.414V480.117C696.46 472.37 697.599 465.306 699.878 458.926C702.222 452.48 705.412 446.914 709.448 442.227C713.55 437.474 718.27 433.828 723.609 431.289C728.947 428.685 734.676 427.383 740.796 427.383C746.655 427.383 752.027 428.49 756.909 430.703C761.792 432.852 766.024 435.911 769.605 439.883C773.251 443.854 776.05 448.607 778.003 454.141C779.956 459.674 780.933 465.794 780.933 472.5V478.652H699.878V473.379H775.659V472.109C775.659 465.013 774.227 458.503 771.362 452.578C768.498 446.589 764.461 441.771 759.253 438.125C754.045 434.479 747.892 432.656 740.796 432.656C734.937 432.656 729.598 433.893 724.78 436.367C720.028 438.841 715.926 442.259 712.476 446.621C709.025 450.918 706.356 455.931 704.468 461.66C702.645 467.389 701.734 473.542 701.734 480.117V484.414C701.734 490.99 702.775 497.142 704.859 502.871C706.942 508.6 709.839 513.646 713.55 518.008C717.261 522.305 721.59 525.69 726.538 528.164C731.551 530.573 736.955 531.777 742.749 531.777C748.804 531.777 754.435 530.768 759.644 528.75C764.917 526.732 769.735 522.891 774.097 517.227L777.808 519.863C775.464 523.184 772.632 526.146 769.312 528.75C766.056 531.289 762.215 533.307 757.788 534.805C753.426 536.237 748.413 536.953 742.749 536.953Z" fill="black"/>
<path d="M267.769 583.524L277.026 552.147H279.927L277.583 561.464L267.71 594.804H264.927L267.769 583.524ZM257.017 552.147L264.81 583.231L267.153 594.804H264.253L253.325 552.147H257.017ZM292.407 583.231L300.083 552.147H303.774L292.876 594.804H289.976L292.407 583.231ZM280.249 552.147L289.39 583.524L292.202 594.804H289.419L279.751 561.464L277.378 552.147H280.249ZM342.235 595.39C340.165 595.39 338.261 595.009 336.522 594.247C334.804 593.485 333.3 592.411 332.011 591.024C330.741 589.638 329.755 587.997 329.052 586.103C328.368 584.188 328.026 582.099 328.026 579.833V578.573C328.026 576.132 328.388 573.925 329.11 571.952C329.833 569.979 330.829 568.29 332.099 566.884C333.368 565.478 334.814 564.403 336.435 563.661C338.075 562.899 339.794 562.519 341.591 562.519C343.603 562.519 345.39 562.88 346.952 563.603C348.515 564.306 349.823 565.312 350.878 566.62C351.952 567.909 352.763 569.442 353.31 571.22C353.856 572.978 354.13 574.921 354.13 577.05V579.188H330.136V576.2H350.644V575.79C350.605 574.013 350.243 572.353 349.56 570.81C348.896 569.247 347.899 567.978 346.571 567.001C345.243 566.024 343.583 565.536 341.591 565.536C340.106 565.536 338.739 565.849 337.489 566.474C336.259 567.099 335.194 567.997 334.296 569.169C333.417 570.321 332.733 571.698 332.245 573.3C331.776 574.882 331.542 576.64 331.542 578.573V579.833C331.542 581.591 331.796 583.231 332.304 584.755C332.831 586.259 333.573 587.587 334.53 588.739C335.507 589.892 336.659 590.79 337.987 591.435C339.315 592.079 340.78 592.401 342.382 592.401C344.257 592.401 345.917 592.06 347.362 591.376C348.808 590.673 350.106 589.569 351.259 588.065L353.456 589.765C352.772 590.78 351.913 591.718 350.878 592.577C349.862 593.437 348.642 594.12 347.216 594.628C345.79 595.136 344.13 595.39 342.235 595.39ZM381.985 549.804H385.501V588.651L385.267 594.804H381.985V549.804ZM407.562 578.661V579.276C407.562 581.64 407.288 583.808 406.741 585.78C406.194 587.753 405.403 589.462 404.368 590.907C403.333 592.333 402.064 593.437 400.56 594.218C399.075 594.999 397.366 595.39 395.433 595.39C393.538 595.39 391.858 595.097 390.394 594.511C388.929 593.905 387.679 593.056 386.644 591.962C385.608 590.849 384.778 589.55 384.153 588.065C383.528 586.562 383.089 584.911 382.835 583.114V575.292C383.128 573.378 383.597 571.64 384.241 570.077C384.886 568.515 385.716 567.167 386.731 566.034C387.767 564.901 388.997 564.032 390.423 563.427C391.868 562.821 393.519 562.519 395.374 562.519C397.308 562.519 399.026 562.899 400.53 563.661C402.054 564.403 403.333 565.487 404.368 566.913C405.403 568.319 406.194 570.019 406.741 572.011C407.288 573.983 407.562 576.2 407.562 578.661ZM404.017 579.276V578.661C404.017 576.806 403.841 575.087 403.489 573.505C403.138 571.923 402.581 570.546 401.819 569.374C401.077 568.183 400.12 567.255 398.948 566.591C397.776 565.927 396.37 565.595 394.73 565.595C393.05 565.595 391.614 565.878 390.423 566.444C389.251 566.991 388.274 567.724 387.493 568.642C386.731 569.54 386.126 570.526 385.677 571.601C385.228 572.675 384.896 573.729 384.681 574.765V583.876C385.013 585.341 385.589 586.718 386.409 588.007C387.23 589.296 388.333 590.341 389.72 591.142C391.106 591.923 392.796 592.313 394.788 592.313C396.39 592.313 397.767 591.981 398.919 591.317C400.091 590.653 401.048 589.735 401.79 588.563C402.552 587.392 403.108 586.015 403.46 584.433C403.831 582.851 404.017 581.132 404.017 579.276ZM496.935 584.315C496.935 583.144 496.739 582.099 496.349 581.181C495.958 580.263 495.314 579.442 494.415 578.72C493.536 577.978 492.345 577.294 490.841 576.669C489.356 576.024 487.501 575.39 485.274 574.765C483.146 574.159 481.222 573.495 479.503 572.772C477.784 572.05 476.31 571.22 475.079 570.282C473.868 569.345 472.94 568.251 472.296 567.001C471.651 565.731 471.329 564.257 471.329 562.577C471.329 560.937 471.681 559.442 472.384 558.095C473.087 556.747 474.073 555.585 475.343 554.608C476.632 553.632 478.146 552.88 479.884 552.353C481.642 551.825 483.565 551.562 485.655 551.562C488.644 551.562 491.222 552.128 493.39 553.261C495.577 554.394 497.267 555.927 498.458 557.86C499.669 559.774 500.274 561.923 500.274 564.306H496.671C496.671 562.45 496.231 560.8 495.353 559.354C494.493 557.89 493.243 556.747 491.603 555.927C489.981 555.087 487.999 554.667 485.655 554.667C483.312 554.667 481.339 555.028 479.737 555.751C478.155 556.454 476.954 557.401 476.134 558.593C475.333 559.765 474.933 561.073 474.933 562.519C474.933 563.534 475.128 564.472 475.519 565.331C475.909 566.171 476.544 566.962 477.423 567.704C478.321 568.427 479.503 569.11 480.968 569.755C482.433 570.38 484.239 570.976 486.388 571.542C488.653 572.167 490.665 572.86 492.423 573.622C494.181 574.384 495.665 575.263 496.876 576.259C498.087 577.235 499.005 578.378 499.63 579.687C500.255 580.995 500.567 582.519 500.567 584.257C500.567 585.995 500.196 587.558 499.454 588.944C498.731 590.312 497.706 591.474 496.378 592.431C495.069 593.388 493.517 594.12 491.72 594.628C489.942 595.136 487.999 595.39 485.89 595.39C483.995 595.39 482.11 595.146 480.235 594.657C478.36 594.169 476.642 593.417 475.079 592.401C473.536 591.366 472.296 590.038 471.358 588.417C470.44 586.796 469.981 584.862 469.981 582.616H473.556C473.556 584.413 473.917 585.927 474.64 587.157C475.362 588.388 476.319 589.384 477.511 590.146C478.722 590.907 480.05 591.464 481.495 591.815C482.96 592.147 484.425 592.313 485.89 592.313C488.136 592.313 490.079 591.981 491.72 591.317C493.38 590.653 494.659 589.726 495.558 588.534C496.476 587.323 496.935 585.917 496.935 584.315ZM540.522 563.104V565.976H524.644V563.104H540.522ZM530.474 554.96H533.96V587.099C533.96 588.563 534.155 589.667 534.546 590.409C534.937 591.151 535.444 591.649 536.069 591.903C536.694 592.157 537.368 592.284 538.091 592.284C538.618 592.284 539.126 592.255 539.614 592.196C540.103 592.118 540.542 592.04 540.933 591.962L541.079 594.921C540.649 595.058 540.093 595.165 539.409 595.243C538.726 595.341 538.042 595.39 537.358 595.39C536.011 595.39 534.819 595.146 533.784 594.657C532.749 594.149 531.939 593.29 531.353 592.079C530.767 590.849 530.474 589.179 530.474 587.069V554.96ZM589.179 587.479V563.104H592.694V594.804H589.325L589.179 587.479ZM589.823 581.62L591.64 581.562C591.64 583.554 591.405 585.39 590.937 587.069C590.468 588.749 589.735 590.214 588.739 591.464C587.743 592.714 586.454 593.681 584.872 594.364C583.29 595.048 581.386 595.39 579.159 595.39C577.616 595.39 576.2 595.175 574.911 594.745C573.642 594.296 572.548 593.593 571.63 592.636C570.712 591.679 569.999 590.438 569.491 588.915C569.003 587.392 568.759 585.546 568.759 583.378V563.104H572.245V583.437C572.245 585.136 572.431 586.552 572.802 587.685C573.192 588.817 573.72 589.726 574.384 590.409C575.067 591.093 575.849 591.581 576.728 591.874C577.606 592.167 578.554 592.313 579.569 592.313C582.147 592.313 584.179 591.815 585.663 590.819C587.167 589.823 588.231 588.515 588.856 586.894C589.501 585.253 589.823 583.495 589.823 581.62ZM643.46 588.651V549.804H646.976V594.804H643.694L643.46 588.651ZM621.458 579.276V578.661C621.458 576.2 621.741 573.983 622.308 572.011C622.874 570.019 623.685 568.319 624.739 566.913C625.814 565.487 627.103 564.403 628.606 563.661C630.11 562.899 631.81 562.519 633.704 562.519C635.56 562.519 637.2 562.821 638.626 563.427C640.052 564.032 641.272 564.901 642.288 566.034C643.323 567.167 644.153 568.515 644.778 570.077C645.423 571.64 645.892 573.378 646.185 575.292V583.114C645.95 584.911 645.521 586.562 644.896 588.065C644.271 589.55 643.44 590.849 642.405 591.962C641.37 593.056 640.12 593.905 638.655 594.511C637.21 595.097 635.54 595.39 633.646 595.39C631.771 595.39 630.081 594.999 628.577 594.218C627.073 593.437 625.794 592.333 624.739 590.907C623.685 589.462 622.874 587.753 622.308 585.78C621.741 583.808 621.458 581.64 621.458 579.276ZM624.974 578.661V579.276C624.974 581.132 625.159 582.851 625.53 584.433C625.901 586.015 626.468 587.392 627.23 588.563C627.991 589.735 628.958 590.653 630.13 591.317C631.302 591.981 632.689 592.313 634.29 592.313C636.302 592.313 637.991 591.933 639.358 591.171C640.726 590.39 641.819 589.364 642.64 588.095C643.46 586.806 644.056 585.399 644.427 583.876V574.765C644.192 573.729 643.851 572.675 643.401 571.601C642.952 570.526 642.337 569.54 641.556 568.642C640.794 567.724 639.817 566.991 638.626 566.444C637.454 565.878 636.028 565.595 634.349 565.595C632.728 565.595 631.331 565.927 630.159 566.591C628.987 567.255 628.011 568.183 627.23 569.374C626.468 570.546 625.901 571.923 625.53 573.505C625.159 575.087 624.974 576.806 624.974 578.661ZM681.101 563.104V594.804H677.614V563.104H681.101ZM676.999 553.935C676.999 553.271 677.204 552.714 677.614 552.265C678.044 551.796 678.63 551.562 679.372 551.562C680.114 551.562 680.7 551.796 681.13 552.265C681.579 552.714 681.804 553.271 681.804 553.935C681.804 554.579 681.579 555.136 681.13 555.604C680.7 556.054 680.114 556.278 679.372 556.278C678.63 556.278 678.044 556.054 677.614 555.604C677.204 555.136 676.999 554.579 676.999 553.935ZM709.747 579.452V578.485C709.747 576.181 710.079 574.052 710.743 572.099C711.407 570.146 712.354 568.456 713.585 567.03C714.835 565.604 716.329 564.501 718.067 563.72C719.806 562.919 721.739 562.519 723.868 562.519C726.017 562.519 727.96 562.919 729.698 563.72C731.437 564.501 732.931 565.604 734.181 567.03C735.431 568.456 736.388 570.146 737.052 572.099C737.716 574.052 738.048 576.181 738.048 578.485V579.452C738.048 581.757 737.716 583.886 737.052 585.839C736.388 587.772 735.431 589.452 734.181 590.878C732.95 592.304 731.466 593.417 729.728 594.218C727.989 594.999 726.056 595.39 723.927 595.39C721.778 595.39 719.835 594.999 718.097 594.218C716.358 593.417 714.864 592.304 713.614 590.878C712.364 589.452 711.407 587.772 710.743 585.839C710.079 583.886 709.747 581.757 709.747 579.452ZM713.233 578.485V579.452C713.233 581.19 713.468 582.841 713.937 584.403C714.405 585.946 715.089 587.323 715.987 588.534C716.886 589.726 717.999 590.663 719.327 591.347C720.655 592.03 722.188 592.372 723.927 592.372C725.646 592.372 727.159 592.03 728.468 591.347C729.796 590.663 730.909 589.726 731.808 588.534C732.706 587.323 733.38 585.946 733.829 584.403C734.298 582.841 734.532 581.19 734.532 579.452V578.485C734.532 576.767 734.298 575.136 733.829 573.593C733.38 572.05 732.696 570.673 731.778 569.462C730.88 568.251 729.767 567.294 728.438 566.591C727.11 565.888 725.587 565.536 723.868 565.536C722.149 565.536 720.626 565.888 719.298 566.591C717.989 567.294 716.876 568.251 715.958 569.462C715.06 570.673 714.376 572.05 713.907 573.593C713.458 575.136 713.233 576.767 713.233 578.485Z" fill="black"/>
<defs>
<radialGradient id="paint0_radial_83_10" cx="0" cy="0" r="1" gradientUnits="userSpaceOnUse" gradientTransform="translate(389.5 402.5) rotate(80.7795) scale(564.798)">
<stop offset="0.855449" stop-color="#F8F8F8"/>
<stop offset="1" stop-color="#D9D6D6"/>
</radialGradient>
<radialGradient id="paint1_radial_83_10" cx="0" cy="0" r="1" gradientUnits="userSpaceOnUse" gradientTransform="translate(997 1125.5) rotate(-131.866) scale(614.334 855.7)">
<stop stop-color="#FF0000"/>
<stop offset="1" stop-color="white" stop-opacity="0"/>
</radialGradient>
<linearGradient id="paint2_linear_83_10" x1="34" y1="470.04" x2="926.337" y2="470.04" gradientUnits="userSpaceOnUse">
<stop stop-color="#B22222"/>
<stop offset="0.2"/>
<stop offset="0.5"/>
<stop offset="1" stop-color="#B22222"/>
</linearGradient>
<linearGradient id="paint3_linear_83_10" x1="34" y1="470.04" x2="926.337" y2="470.04" gradientUnits="userSpaceOnUse">
<stop stop-color="#B22222"/>
<stop offset="0.2"/>
<stop offset="0.5"/>
<stop offset="1" stop-color="#B22222"/>
</linearGradient>
<linearGradient id="paint4_linear_83_10" x1="34" y1="470.04" x2="926.337" y2="470.04" gradientUnits="userSpaceOnUse">
<stop stop-color="#B22222"/>
<stop offset="0.2"/>
<stop offset="0.5"/>
<stop offset="1" stop-color="#B22222"/>
</linearGradient>
<linearGradient id="paint5_linear_83_10" x1="34" y1="470.04" x2="926.337" y2="470.04" gradientUnits="userSpaceOnUse">
<stop stop-color="#B22222"/>
<stop offset="0.2"/>
<stop offset="0.5"/>
<stop offset="1" stop-color="#B22222"/>
</linearGradient>
<linearGradient id="paint6_linear_83_10" x1="34" y1="470.04" x2="926.337" y2="470.04" gradientUnits="userSpaceOnUse">
<stop stop-color="#B22222"/>
<stop offset="0.2"/>
<stop offset="0.5"/>
<stop offset="1" stop-color="#B22222"/>
</linearGradient>
<linearGradient id="paint7_linear_83_10" x1="34" y1="470.04" x2="926.337" y2="470.04" gradientUnits="userSpaceOnUse">
<stop stop-color="#B22222"/>
<stop offset="0.2"/>
<stop offset="0.5"/>
<stop offset="1" stop-color="#B22222"/>
</linearGradient>
<linearGradient id="paint8_linear_83_10" x1="34" y1="470.04" x2="926.337" y2="470.04" gradientUnits="userSpaceOnUse">
<stop stop-color="#B22222"/>
<stop offset="0.2"/>
<stop offset="0.5"/>
<stop offset="1" stop-color="#B22222"/>
</linearGradient>
<linearGradient id="paint9_linear_83_10" x1="34" y1="470.04" x2="926.337" y2="470.04" gradientUnits="userSpaceOnUse">
<stop stop-color="#B22222"/>
<stop offset="0.2"/>
<stop offset="0.5"/>
<stop offset="1" stop-color="#B22222"/>
</linearGradient>
</defs>
</svg>
